<svg width="512" height="512" viewBox="0 0 100 100" xmlns="http://www.w3.org/2000/svg">
	<defs>
		<linearGradient id="logoGradient" x1="0%" y1="0%" x2="100%" y2="100%">
			<stop offset="0%" style="stop-color:#ff33a8;" />
			<stop offset="100%" style="stop-color:#9d4edd;" />
		</linearGradient>
	</defs>
	<path fill="url(#logoGradient)"
		d="M50 0C22.39 0 0 22.39 0 50s22.39 50 50 50c18.59 0 34.6-10.19 42.68-25.18C86.72 82.32 72.8 91 56 91c-22.09 0-40-17.91-40-40s17.91-40 40-40c15.42 0 28.73 8.74 35.5 21.25C84.34 5.66 68.23 0 50 0z" />
	<path fill="url(#logoGradient)" fill-opacity="0.7" d="M85,30 a2,2 0 1,1 4,0 a2,2 0 1,1 -4,0" />
	<path fill="url(#logoGradient)" fill-opacity="0.5" d="M90,45 a1.5,1.5 0 1,1 3,0 a1.5,1.5 0 1,1 -3,0" />
	<path fill="url(#logoGradient)" fill-opacity="0.9" d="M78,55 a1,1 0 1,1 2,0 a1,1 0 1,1 -2,0" />
</svg>
